Coordinates
version=1
nRows=60
nColumns=12
inDegrees=yes

Units are S.I. units (second, meters, Newtons, ...)
Angles are in degrees

endheader
time	SC_y	SC_z	SC_x	AC_y	AC_z	AC_x	GH_y	GH_z	GH_yy	EL_x	PS_y
       0.0              -38.63          20.55          82.72           42.3         -14.38         -4.105          134.3          50.04         -113.4          119.0          124.2
   0.03431              -38.63          20.55          82.71           42.3         -14.38         -4.103          134.2          50.04         -113.4          119.0          124.2
   0.06862              -38.63          20.55          82.69           42.3         -14.38         -4.102          134.2          50.03         -113.4          119.0          124.2
    0.1029              -38.63          20.55          82.68           42.3         -14.38           -4.1          134.2          50.02         -113.3          119.0          124.2
    0.1372              -38.63          20.54          82.66           42.3         -14.38         -4.098          134.1          50.01         -113.3          119.0          124.2
    0.1716              -38.62          20.54          82.65          42.31         -14.38         -4.096          134.0          50.01         -113.3          119.0          124.2
    0.2059              -38.62          20.54          82.63          42.31         -14.38         -4.094          134.0           50.0         -113.3          119.0          124.2
    0.2402              -38.62          20.54          82.62          42.31         -14.38         -4.092          133.9          49.99         -113.3          119.0          124.2
    0.2745              -38.62          20.53           82.6          42.31         -14.38          -4.09          133.9          49.98         -113.2          119.1          124.2
    0.3088              -38.62          20.53          82.58          42.31         -14.38         -4.088          133.8          49.97         -113.2          119.1          124.2
    0.3431              -38.61          20.53          82.55          42.32         -14.38         -4.085          133.7          49.95         -113.2          119.1          124.2
    0.3774              -38.61          20.52          82.53          42.32         -14.38         -4.082          133.6          49.94         -113.2          119.1          124.2
    0.4117              -38.61          20.52          82.51          42.32         -14.38         -4.079          133.5          49.93         -113.1          119.1          124.2
     0.446               -38.6          20.52          82.48          42.32         -14.38         -4.076          133.4          49.91         -113.1          119.1          124.3
    0.4803               -38.6          20.51          82.45          42.33         -14.37         -4.072          133.3           49.9         -113.1          119.1          124.3
    0.5147               -38.6          20.51          82.42          42.33         -14.37         -4.069          133.2          49.88         -113.0          119.1          124.3
     0.549              -38.59           20.5          82.38          42.34         -14.37         -4.065          133.1          49.86         -113.0          119.1          124.3
    0.5833              -38.59           20.5          82.34          42.34         -14.37          -4.06          133.0          49.84         -113.0          119.1          124.3
    0.6176              -38.58          20.49           82.3          42.34         -14.37         -4.055          132.8          49.82         -112.9          119.1          124.3
    0.6519              -38.58          20.48          82.26          42.35         -14.37          -4.05          132.7          49.79         -112.9          119.1          124.3
    0.6862              -38.57          20.48          82.21          42.35         -14.37         -4.044          132.5          49.76         -112.8          119.1          124.3
    0.7205              -38.57          20.47          82.15          42.36         -14.37         -4.037          132.3          49.73         -112.8          119.1          124.3
    0.7548              -38.56          20.46          82.09          42.37         -14.37          -4.03          132.1           49.7         -112.7          119.1          124.3
    0.7891              -38.55          20.45          82.03          42.37         -14.37         -4.022          131.8          49.66         -112.6          119.1          124.3
    0.8235              -38.54          20.44          81.95          42.38         -14.37         -4.013          131.6          49.62         -112.5          119.1          124.4
    0.8578              -38.53          20.43          81.87          42.39         -14.37         -4.003          131.3          49.58         -112.4          119.1          124.4
    0.8921              -38.52          20.41          81.77           42.4         -14.37         -3.992          130.9          49.53         -112.3          119.1          124.4
    0.9264              -38.51           20.4          81.67          42.41         -14.37          -3.98          130.6          49.47         -112.2          119.1          124.4
    0.9607               -38.5          20.38          81.55          42.43         -14.37         -3.965          130.1           49.4         -112.1          119.1          124.4
     0.995              -38.48          20.36          81.42          42.44         -14.37         -3.949          129.7          49.33         -111.9          119.1          124.5
     1.029              -38.46          20.34          81.26          42.46         -14.37         -3.931          129.1          49.25         -111.8          119.2          124.5
     1.064              -38.44          20.31          81.09          42.48         -14.37          -3.91          128.5          49.15         -111.6          119.2          124.5
     1.098              -38.42          20.28          80.88           42.5         -14.37         -3.886          127.8          49.04         -111.4          119.2          124.6
     1.132              -38.39          20.25          80.65          42.53         -14.37         -3.858          126.9          48.91         -111.1          119.2          124.6
     1.167              -38.36          20.21          80.37          42.56         -14.37         -3.825          126.0          48.76         -110.8          119.2          124.7
     1.201              -38.32          20.16          80.05          42.59         -14.36         -3.786          124.8          48.58         -110.4          119.3          124.7
     1.235              -38.28           20.1          79.66          42.63         -14.36          -3.74          123.4          48.37         -110.0          119.3          124.8
     1.269              -38.22          20.03          79.19          42.68         -14.36         -3.684          121.8          48.11         -109.5          119.3          124.9
     1.304              -38.16          19.95          78.63          42.75         -14.36         -3.617          119.8          47.81         -108.9          119.4          125.0
     1.338              -38.08          19.85          77.95          42.82         -14.36         -3.535          117.4          47.43         -108.1          119.4          125.1
     1.372              -37.98          19.72           77.1          42.91         -14.35         -3.434          114.3          46.97         -107.2          119.5          125.3
     1.407              -37.86          19.57          76.04          43.03         -14.35         -3.308          110.6          46.39         -106.0          119.6          125.5
     1.441              -37.71          19.37          74.72          43.17         -14.34          -3.15          105.9          45.66         -104.6          119.7          125.7
     1.475              -37.51          19.12          73.02          43.36         -14.34         -2.948          99.88          44.73         -102.7          119.8          126.1
      1.51              -37.26          18.81          70.86           43.6         -14.33          -2.69          92.19          43.55         -100.4          120.0          126.5
     1.544              -36.94           18.4          68.08           43.9         -14.31         -2.358          82.34          42.03         -97.31          120.2          127.0
     1.578              -36.53          17.87          64.54          44.29          -14.3         -1.935          69.74          40.08         -93.41          120.5          127.7
     1.613              -36.02          17.22          60.08          44.78         -14.28         -1.403          53.91          37.64         -88.52          120.9          128.5
     1.647              -35.39          16.42          54.64          45.37         -14.26        -0.7541          34.61          34.66         -82.55          121.3          129.6
     1.681              -34.66          15.49          48.34          46.06         -14.23      -0.002306          12.25          31.21         -75.63          121.8          130.8
     1.716              -33.88          14.49          41.52          46.81          -14.2         0.8117         -11.97          27.48         -68.14          122.4          132.1
      1.75              -33.09          13.48           34.7          47.55         -14.18          1.626         -36.19          23.74         -60.65          122.9          133.4
     1.784              -32.36          12.55           28.4          48.24         -14.15          2.378         -58.55          20.29         -53.73          123.4          134.6
     1.818              -31.74          11.75          22.97          48.84         -14.13          3.026         -77.85          17.31         -47.77          123.9          135.7
     1.853              -31.22           11.1          18.51          49.32         -14.11          3.558         -93.68          14.87         -42.87          124.2          136.5
     1.887              -30.81          10.57          14.96          49.71         -14.09          3.982         -106.3          12.93         -38.97          124.5          137.2
     1.921              -30.49          10.17          12.18          50.02         -14.08          4.313         -116.1          11.41         -35.92          124.7          137.7
     1.956              -30.24          9.847          10.02          50.25         -14.07          4.571         -123.8          10.22         -33.55          124.9          138.1
      1.99              -30.05          9.598          8.329          50.44         -14.07          4.773         -129.8          9.295         -31.69          125.0          138.5
     2.024              -29.89          9.402          6.999          50.58         -14.06          4.932         -134.5          8.567         -30.23          125.2          138.7
